# xmcd CD database file generated by Grip 3.3.1
# 
# Track frame offsets:
#       150
#       12881
#       38482
#       67896
#       82245
#       96201
#       111734
#       140484
#       154483
#       171322
# 
# Disc length: 2452 seconds
# 
# Revision: 1
# Processed by: cddbd v1.5.2PL0 Copyright (c) Steve Scherf et al.
# Submitted via: Grip 3.3.1
# 
DISCID=8809920a
DTITLE=Al Lerman - Homemade Jam: Blues-Play-Along-Tracks Volume 1
DYEAR=2008
DGENRE=Blues
TTITLE0=Fast Swing Shuffle in G
TTITLE1=Chicago Blues Shuffle in G
TTITLE2=Slow Blues in G
TTITLE3=Shuffle in Gm
TTITLE4=Swing in D
TTITLE5=Slow Shuffle in Dm
TTITLE6=Easy Shuffle in C
TTITLE7=Half Time Feel in C
TTITLE8=Fast Shuffle in C
TTITLE9=Fast Swing Shuffle in G reprise
EXTD=http://www.myspace.com/allerman
EXTT0=
EXTT1=
EXTT2=
EXTT3=
EXTT4=
EXTT5=
EXTT6=
EXTT7=
EXTT8=
EXTT9=
PLAYORDER=
